# xmcd
#
# Track frame offsets:
#	150
#	15737
#	30160
#	44775
#	58782
#	72862
#	87397
#	98825
#	116777
#	131045
#
# Disc length: 1939 seconds
#
# Revision: 0
# Processed by: cddbd v1.5.2PL0 Copyright (c) Steve Scherf et al.
# Submitted via: audiograbber 1.83.01
#
DISCID=8907910a
DTITLE=Collin Raye - In This Life
DYEAR=1992
DGENRE=Country
TTITLE0=What They Don't Know
TTITLE1=In This Life
TTITLE2=Big River
TTITLE3=Somebody Else's Moon
TTITLE4=You Can't Take It With You
TTITLE5=That Was a River
TTITLE6=I Want You Bad (And That Ain't Good)
TTITLE7=Latter Day Cowboy
TTITLE8=Many a Mile
TTITLE9=Let It Be Me
EXTD=YEAR: 1992
EXTT0=
EXTT1=
EXTT2=
EXTT3=
EXTT4=
EXTT5=
EXTT6=
EXTT7=
EXTT8=
EXTT9=
PLAYORDER=
